<svg xmlns="http://www.w3.org/2000/svg" width="160.981" height="92.157" viewBox="0 0 160.981 92.157">
  <g id="Groupe_19700" data-name="Groupe 19700" transform="translate(-118.016 -350.008)">
    <path id="Tracé_2435" data-name="Tracé 2435" d="M76.848,52.64a7.623,7.623,0,0,0-8.473,0c-.072-.03-.137-.071-.212-.1a8.019,8.019,0,0,0-.884-.3,3.783,3.783,0,0,0-.4-.111l-.246-.061a4.209,4.209,0,0,0-.445-.079c-.188-.033-.365-.055-.567-.076a6.549,6.549,0,0,0-1.088-.044h-.18a6.953,6.953,0,0,0-.91.078c-.216.026-.417.053-.713.112l-.289.056c-.122.025-.292.068-.579.151-.192.058-.4.122-.7.227l-.217.086a9.777,9.777,0,0,0-1.212.551c-.116.063-.213.124-.309.185l-.111.069c-.239.139-.48.29-.739.47-.28.194-.529.382-.719.54l-.3.251c-.244.219-.468.427-.667.618-.055.055-.122.131-.216.235a9.666,9.666,0,0,0-.677.8,14.1,14.1,0,0,0-1.018,1.51c-.122.222-.286.523-.46.882a9.683,9.683,0,0,0-.512,1.208,11.755,11.755,0,0,0-.375,1.237c-.093.378-.158.732-.252,1.225L44.41,122.1a15.84,15.84,0,0,0-.181,2.534,15.234,15.234,0,0,0,.332,3.069,14.681,14.681,0,0,0,1,3.042,13.475,13.475,0,0,0,1.624,2.665,11.967,11.967,0,0,0,6.621,4.316,11.838,11.838,0,0,0,4.031.287,13.085,13.085,0,0,0,4.038-1.089,14.66,14.66,0,0,0,3.736-2.464,16.027,16.027,0,0,0,2.709-3.222,16.19,16.19,0,0,0,1.747-3.7l-.54-.176.009,0h0l.544.168a20.881,20.881,0,0,0,.557-2.254c.087-.457.143-1.05.188-1.552l1.212-20.34c9.321-2.407,16.567-8.462,19.437-16.9,4.091-12.022-1.795-25.625-14.631-33.843m13.344,33.6c-3.954,11.628-16.72,18.219-30.753,17.005a6.759,6.759,0,0,1-6.034-8.716l12.687-37.3a6.761,6.761,0,0,1,10.095-3.223c11.862,7.593,17.959,20.605,14,32.23" transform="translate(73.788 298.652)" fill="#50ac32"/>
    <path id="Tracé_2445" data-name="Tracé 2445" d="M162.954,141.982c-10.335-.309-17.239-6.308-17.57-13.815l11.863.384c.2,2.713,2.57,4.589,5.83,4.687,3.052.091,4.689-1.248,4.74-2.982.187-6.242-21.034-2.365-20.608-16.585.2-6.589,5.978-11.831,16.1-11.528,9.988.3,15.562,6,16.1,13.651l-11.151-.312c-.268-2.646-2.227-4.44-5.557-4.54-2.775-.083-4.334.981-4.39,2.853-.185,6.174,20.893,2.43,20.67,16.864C178.782,137.388,172.665,142.273,162.954,141.982Z" transform="translate(51.405 295.34)" fill="#004156"/>
    <path id="Tracé_2446" data-name="Tracé 2446" d="M0,1.8,11.73,0l2.7,17.629c1.828-3.649,5.666-6.554,10.947-7.362,8.712-1.333,15.466,3.81,17.041,14.1L45.84,46.728,34.178,48.513,31,27.729c-.8-5.213-4.12-7.653-8.579-6.97s-6.9,4-6.1,9.218L19.5,50.76l-11.73,1.8Z" transform="matrix(0.996, 0.087, -0.087, 0.996, 233.332, 382.981)" fill="#004156"/>
    <path id="Tracé_2447" data-name="Tracé 2447" d="M34.708,9.8,26.993,29.363c-1.935,4.906-5.716,6.548-9.976,4.867-4.131-1.63-5.838-5.436-3.9-10.341L20.83,4.33,9.856,0l-8.3,21.044C-2.24,30.662,1.11,38.623,9.437,41.908a14.107,14.107,0,0,0,13-.99L21,44.56l-.5,1.264-.153.388,11.038,4.355.153-.388.5-1.265L45.747,14.159Z" transform="translate(145.555 393.101) rotate(-14)" fill="#004156"/>
  </g>
</svg>
